<?xml version="1.0" standalone="no"?>
<!DOCTYPE svg PUBLIC "-//W3C//DTD SVG 20010904//EN"
 "http://www.w3.org/TR/2001/REC-SVG-20010904/DTD/svg10.dtd">
<svg version="1.0" xmlns="http://www.w3.org/2000/svg"
 width="739.000000pt" height="739.000000pt" viewBox="0 0 739.000000 739.000000"
 preserveAspectRatio="xMidYMid meet">

<g transform="translate(0.000000,739.000000) scale(0.100000,-0.100000)"
fill="#000000" stroke="none">
<path d="M2951 7355 c-1074 -223 -1977 -885 -2513 -1842 -238 -426 -422 -1006
-433 -1368 l-4 -130 14 115 c81 635 303 1209 662 1717 231 327 549 645 876
876 459 325 1016 554 1548 636 74 11 145 22 159 24 14 3 -13 5 -60 5 -60 1
-132 -9 -249 -33z"/>
<path d="M4140 7383 c14 -2 85 -13 159 -24 532 -82 1089 -311 1548 -636 327
-231 645 -549 876 -876 325 -459 554 -1016 636 -1548 11 -74 22 -145 24 -159
3 -14 5 11 6 55 2 149 -86 521 -191 804 -449 1209 -1486 2097 -2754 2356 -119
25 -193 35 -249 34 -44 -1 -69 -3 -55 -6z"/>
<path d="M5270 6811 c0 -5 -19 -13 -43 -19 -23 -6 -74 -26 -112 -44 -39 -18
-74 -34 -80 -37 -5 -2 6 14 25 35 19 22 6 12 -30 -22 -68 -63 -135 -117 -185
-148 -33 -21 -226 -197 -352 -320 -77 -75 -85 -80 -129 -82 -39 -1 -52 -8 -83
-38 -32 -32 -36 -42 -35 -84 1 -40 -4 -55 -39 -101 -30 -41 -38 -58 -30 -69
18 -29 30 -23 68 33 21 30 41 55 45 55 18 0 64 -64 72 -102 44 -207 57 -247
103 -306 57 -74 85 -90 181 -102 71 -10 82 -15 111 -45 l33 -34 47 14 c27 8
66 15 89 15 50 0 58 -13 74 -125 14 -97 32 -161 67 -237 7 -14 -108 -63 -190
-82 -36 -8 -52 1 -36 20 7 9 14 50 17 93 l4 78 -62 12 c-34 7 -64 10 -67 7 -3
-2 -13 -48 -23 -100 -11 -53 -22 -101 -25 -106 -3 -5 -23 -14 -43 -19 -58 -16
-453 -52 -529 -49 l-68 3 -3 53 c-3 51 -6 57 -75 129 -40 42 -120 114 -179
160 l-108 84 -107 -11 c-60 -5 -142 -17 -183 -26 -41 -8 -106 -19 -145 -23
-64 -6 -74 -5 -125 20 -72 37 -178 79 -195 79 -8 0 -47 -11 -87 -24 -40 -12
-93 -26 -117 -30 l-43 -7 21 36 c31 53 27 78 -18 114 -62 49 -89 55 -143 32
-25 -11 -49 -25 -53 -31 -4 -7 -44 -39 -88 -71 -87 -63 -128 -75 -147 -40 -13
26 -15 20 30 81 60 80 54 121 -26 193 -43 38 -69 51 -41 19 9 -10 23 -37 32
-61 13 -37 13 -47 0 -77 -8 -19 -17 -34 -20 -34 -6 0 -40 20 -97 58 -31 20
-46 24 -82 19 l-44 -6 2 32 c1 27 9 37 50 63 26 17 44 34 38 38 -6 3 -13 2
-17 -4 -3 -5 -14 -10 -24 -10 -10 0 -42 -25 -71 -55 -46 -49 -51 -60 -47 -88
5 -29 1 -36 -49 -75 -51 -40 -57 -43 -86 -33 -17 6 -47 11 -68 11 -20 0 -44 6
-54 13 -17 13 -17 14 -1 30 9 9 13 17 9 17 -3 0 -1 7 6 15 7 9 9 23 4 37 -4
13 -7 27 -6 31 4 13 -75 111 -110 137 l-33 24 16 -24 c9 -14 22 -43 29 -64 11
-35 11 -40 -7 -55 -33 -27 -51 -64 -42 -86 16 -42 12 -48 -32 -41 -31 5 -46 3
-59 -9 -17 -15 -21 -13 -58 37 -21 29 -42 61 -46 72 -9 26 12 97 36 123 l21
22 -26 6 c-88 22 -172 -163 -109 -242 52 -65 57 -76 43 -81 -8 -3 -33 -22 -56
-43 -34 -32 -46 -52 -64 -114 -12 -43 -37 -97 -56 -124 -19 -27 -35 -53 -35
-60 0 -6 -8 -11 -18 -11 -33 0 -67 -47 -66 -90 2 -66 82 -140 138 -126 12 3
44 22 70 42 45 34 48 35 71 20 13 -9 29 -33 34 -54 15 -52 59 -92 110 -99 24
-3 46 -13 51 -22 5 -10 14 -65 21 -123 l12 -106 53 -53 c30 -28 57 -49 60 -46
3 3 -4 24 -15 47 -11 23 -27 67 -36 97 -21 72 -28 64 -10 -12 7 -33 12 -61 10
-63 -8 -8 -35 104 -35 141 0 22 -5 69 -11 105 -7 41 -8 67 -2 73 7 7 12 -7 17
-37 10 -74 37 -155 68 -201 29 -43 37 -69 16 -57 -8 5 -9 2 -5 -10 4 -10 7
-20 7 -22 0 -3 4 -3 9 0 4 3 4 -16 -1 -42 -9 -46 -8 -48 25 -77 19 -17 44 -55
57 -85 12 -30 28 -66 35 -80 7 -14 16 -39 19 -56 4 -16 20 -57 36 -90 17 -32
30 -65 30 -72 0 -20 39 -72 53 -72 10 0 64 -161 82 -243 2 -9 7 -22 10 -27 4
-6 0 -22 -9 -35 -9 -13 -16 -33 -16 -44 0 -10 -6 -21 -14 -24 -8 -3 -17 -19
-21 -36 -8 -37 -32 -40 -90 -11 -59 30 -142 51 -172 44 l-26 -7 27 -24 c19
-16 40 -23 67 -23 60 0 133 -20 120 -33 -18 -18 -13 -23 26 -34 29 -8 201 -11
245 -4 5 0 25 16 45 35 21 18 48 36 59 40 12 4 63 -1 113 -9 114 -20 141 -17
84 10 -23 11 -43 23 -43 26 0 9 65 19 119 19 l44 0 -29 22 c-16 13 -35 22 -42
20 -7 -2 -20 2 -27 8 -9 7 -23 9 -37 4 -13 -4 -25 -9 -28 -9 -3 -1 -18 -7 -33
-13 -16 -7 -34 -12 -40 -12 -7 0 -3 -7 7 -15 18 -14 14 -15 -42 -15 -34 0 -62
3 -62 6 0 3 11 15 25 26 14 11 25 26 25 33 0 7 11 22 25 33 l25 20 -35 22
c-29 18 -33 25 -25 40 13 25 13 30 -5 30 -17 0 -135 118 -174 175 -25 35 -28
47 -23 97 2 31 -1 78 -7 105 -11 44 -9 55 23 146 19 55 36 100 38 102 6 7 114
-17 151 -33 20 -9 37 -22 37 -29 0 -7 -21 -45 -46 -84 -30 -48 -43 -77 -38
-88 4 -9 7 -19 6 -22 0 -3 46 -56 104 -119 57 -62 104 -119 104 -127 0 -7 7
-16 15 -19 8 -4 15 -10 15 -15 0 -18 45 -71 72 -85 15 -8 35 -27 45 -44 9 -16
20 -30 24 -30 3 0 12 28 19 63 6 34 14 70 17 80 3 11 -1 17 -12 17 -26 0 -165
133 -165 157 0 8 -7 16 -15 19 -8 4 -15 10 -15 16 0 5 -12 25 -26 43 -26 34
-26 35 -10 80 8 26 32 69 52 96 33 46 37 48 50 32 7 -10 14 -26 14 -35 0 -9 5
-20 11 -23 6 -4 8 -13 5 -21 -3 -7 -1 -16 4 -19 6 -4 10 -17 10 -29 0 -13 8
-34 18 -47 32 -45 112 -230 112 -261 0 -8 5 -19 12 -26 8 -8 8 -15 0 -25 -10
-11 -41 -100 -42 -116 0 -2 18 -1 40 3 46 7 50 2 15 -26 -38 -29 -31 -38 31
-38 48 0 55 -2 50 -16 -5 -12 -2 -15 10 -10 41 16 90 18 102 3 10 -11 9 -17
-3 -27 -31 -26 -16 -33 53 -27 73 7 133 24 144 40 4 7 12 6 22 -2 13 -11 22
-11 48 0 18 7 39 19 46 26 16 15 62 17 62 3 0 -5 -4 -11 -10 -11 -5 -1 -14 -2
-19 -3 -20 -2 -20 -13 -2 -30 25 -23 57 -14 103 30 42 39 101 49 96 17 -2 -14
4 -18 27 -19 17 -1 38 3 48 8 21 11 38 1 19 -11 -10 -6 -10 -10 2 -20 11 -9
24 -10 53 -2 65 18 121 14 134 -10 9 -17 16 -20 42 -14 18 4 73 9 122 11 100
5 142 19 124 41 -9 9 -8 17 1 28 11 13 8 15 -20 15 -28 0 -31 2 -20 15 7 8 15
13 19 11 4 -3 13 0 21 5 13 8 13 10 0 19 -11 7 0 10 40 10 l54 0 -39 -41 -40
-41 48 7 c46 6 48 5 42 -14 -5 -18 2 -23 69 -43 42 -13 76 -25 76 -28 0 -3
-15 -15 -33 -27 l-32 -23 50 0 c40 0 53 4 63 21 11 18 20 20 52 15 22 -3 41
-2 45 4 3 5 -3 10 -14 10 -11 0 -23 5 -26 10 -4 6 7 10 27 10 51 0 78 11 78
30 0 13 13 21 48 30 l47 12 -43 21 c-23 12 -41 26 -38 33 2 6 -12 16 -33 23
-53 15 -74 14 -67 -4 7 -20 -18 -20 -34 0 -16 19 -13 21 125 107 55 34 114 71
130 83 17 13 47 26 68 29 66 12 99 96 56 142 -20 22 -20 26 -10 166 19 230 41
405 66 503 l15 60 -5 -55 c-14 -156 -15 -220 -7 -275 8 -55 9 -50 8 55 0 138
10 350 19 358 3 3 4 -79 3 -183 -2 -139 1 -200 10 -227 15 -43 32 -51 24 -13
-2 14 -8 25 -12 25 -14 0 -20 93 -13 245 l6 156 57 -7 c56 -6 58 -5 94 31 33
33 79 55 113 55 7 0 -22 -69 -67 -160 -44 -88 -80 -162 -80 -165 0 -3 9 -5 21
-5 13 0 19 -5 16 -12 -3 -7 -17 -42 -32 -78 -15 -36 -31 -69 -36 -74 -5 -6 -9
-24 -9 -41 0 -17 -4 -35 -9 -41 -5 -5 -12 -23 -15 -39 -6 -26 -1 -36 24 -60
19 -19 28 -35 25 -46 -7 -22 41 -119 58 -119 13 0 79 -87 117 -154 11 -21 52
-79 90 -131 39 -51 70 -97 70 -102 0 -14 -162 -93 -191 -93 -15 0 -32 -6 -38
-14 -9 -11 -6 -19 16 -36 21 -17 23 -21 8 -17 -11 3 -51 9 -90 12 -38 4 -81 9
-95 12 -84 17 -83 17 -75 -6 4 -14 2 -21 -7 -21 -8 0 -19 -5 -26 -12 -9 -9 -5
-15 18 -24 17 -7 30 -21 30 -30 0 -15 -10 -16 -92 -12 -51 3 -106 2 -123 -2
-26 -6 -18 -9 48 -20 42 -8 76 -18 74 -24 -2 -5 -25 -16 -53 -24 -73 -23 -29
-26 84 -7 97 16 132 34 132 65 0 9 10 26 23 38 28 27 106 30 151 7 36 -19 62
-19 70 0 3 9 -5 20 -22 29 -33 18 -22 19 50 5 50 -10 62 -9 134 16 182 61 216
92 159 145 -55 52 -102 143 -125 240 -12 52 -25 100 -29 105 -5 6 -18 43 -30
83 -12 40 -27 72 -34 72 -14 0 -77 61 -77 74 0 4 29 41 65 81 36 40 65 76 65
80 0 4 11 16 25 27 13 10 30 31 37 45 16 32 38 42 38 16 0 -11 4 -23 8 -29 5
-5 14 -35 21 -66 12 -54 14 -58 46 -64 25 -4 43 -18 67 -50 18 -24 41 -44 50
-44 17 0 72 -66 219 -264 l81 -109 -11 -79 c-11 -78 -33 -127 -59 -128 -7 0
-15 -7 -18 -15 -5 -11 -22 -15 -66 -15 -47 0 -66 -5 -91 -24 -24 -18 -51 -26
-105 -32 -57 -5 -76 -11 -87 -27 -8 -12 -38 -28 -66 -36 l-51 -16 91 -1 c50
-1 94 -4 98 -8 3 -3 -2 -15 -12 -26 -27 -29 -3 -26 74 10 49 23 62 33 53 42
-18 18 -15 45 6 53 9 4 112 11 227 14 210 7 210 7 255 35 29 19 64 31 100 35
l55 6 -34 13 c-50 18 -89 15 -124 -10 -22 -16 -51 -23 -111 -28 -77 -6 -108
-3 -77 8 24 8 82 76 87 102 3 14 23 38 46 54 22 15 44 39 50 52 10 21 7 28
-28 59 -21 19 -47 37 -56 40 -10 4 -18 10 -18 14 0 4 -18 34 -39 67 -22 34
-70 123 -108 199 -62 124 -74 143 -135 197 -63 56 -82 88 -59 103 10 6 8 56
-3 74 -3 5 1 14 9 21 12 10 10 20 -15 71 -17 32 -30 65 -30 72 0 9 24 18 70
26 39 7 70 14 70 16 0 1 -16 29 -35 61 -19 32 -35 63 -35 68 0 6 -14 40 -31
76 -17 36 -43 92 -59 125 -135 294 -174 369 -218 420 -12 14 -22 30 -22 35 0
5 -12 17 -27 27 -36 22 -253 184 -253 189 0 1 11 23 24 47 14 27 20 50 15 58
-4 7 -11 34 -14 60 -6 41 -13 53 -53 86 -72 60 -125 76 -224 67 -163 -14 -175
-33 -114 -175 11 -27 14 -61 11 -137 -4 -94 -3 -102 14 -102 17 0 51 -29 51
-43 0 -4 -34 -7 -76 -7 -75 0 -75 0 -91 33 -8 17 -34 66 -57 108 -22 41 -52
95 -65 120 -19 34 -25 61 -26 115 -1 55 -6 77 -22 100 l-21 29 31 38 c53 64
181 197 191 197 5 0 39 24 75 53 77 63 113 86 199 126 34 17 75 39 90 49 27
19 59 31 140 52 49 13 59 35 10 25 -18 -4 -39 -11 -48 -15 -8 -4 -26 -12 -40
-18 -14 -6 -47 -20 -75 -32 -127 -55 -120 -53 -107 -38 32 40 184 129 243 144
35 9 69 20 74 24 6 5 27 11 48 15 42 8 50 16 41 39 -6 17 -34 22 -34 7z m-874
-659 c14 -9 47 -70 51 -94 1 -9 -2 -20 -7 -23 -13 -8 -13 -52 -1 -59 5 -4 16
-26 24 -50 8 -24 33 -72 56 -107 23 -35 41 -68 41 -73 0 -11 38 -72 86 -138
15 -21 33 -53 40 -73 l12 -35 -43 0 c-66 0 -107 11 -101 26 3 9 -8 17 -33 24
-30 8 -41 17 -50 43 -7 17 -21 48 -31 68 -11 20 -27 77 -35 125 -9 49 -21 97
-26 106 -6 12 -4 20 9 27 15 9 15 12 2 21 -8 5 -23 10 -32 10 -10 0 -18 7 -18
15 0 8 -4 15 -10 15 -15 0 -12 26 5 40 12 10 15 10 15 -3 0 -8 7 -18 16 -21
30 -11 37 -6 22 16 -14 20 -13 26 4 56 21 38 11 72 -22 72 -11 0 -20 5 -20 10
0 12 30 13 46 2z m-50 -46 c18 -19 18 -26 -1 -26 -8 0 -15 2 -15 4 0 2 -3 11
-6 20 -8 20 3 21 22 2z m436 -49 c-18 -18 -29 -36 -26 -40 4 -4 3 -7 -3 -7 -6
0 -14 -17 -18 -37 l-7 -38 -15 49 c-14 48 -14 50 9 68 58 47 104 50 60 5z
m-462 -14 c0 -17 -10 -16 -32 4 -26 23 -22 33 7 20 14 -7 25 -18 25 -24z m606
16 c19 -22 19 -22 -4 -10 -24 13 -79 1 -112 -25 -48 -36 -52 -28 -9 21 25 28
38 35 68 35 26 0 44 -7 57 -21z m44 1 c0 -5 -2 -10 -4 -10 -3 0 -8 5 -11 10
-3 6 -1 10 4 10 6 0 11 -4 11 -10z m64 -36 c35 -34 65 -123 42 -125 -6 0 -20
-3 -31 -5 -50 -12 -104 -14 -109 -6 -3 6 -15 8 -25 5 -10 -3 -21 0 -25 5 -3 5
21 12 56 16 95 10 96 26 3 27 -80 1 -80 1 -40 14 l40 13 -27 11 c-15 6 -36 8
-45 4 -15 -5 -16 -4 -5 8 12 12 108 46 139 48 6 1 19 -6 27 -15z m-202 -28
c-20 -19 -39 -32 -42 -29 -6 6 57 63 70 63 5 0 -7 -15 -28 -34z m10 -108 c34
-19 58 -23 119 -22 42 1 88 4 103 8 37 9 34 -14 -8 -58 -21 -22 -42 -36 -57
-36 -21 1 -19 3 13 20 52 28 58 44 9 24 -23 -9 -51 -14 -64 -11 -12 3 -44 11
-72 17 -51 12 -95 43 -95 67 0 17 2 17 52 -9z m-67 -17 c10 -33 83 -91 130
-103 28 -8 45 -18 45 -27 0 -38 -74 -111 -114 -111 -24 0 -37 32 -19 46 26 18
5 34 -43 34 -24 0 -44 2 -44 4 0 3 5 17 10 32 8 20 14 24 22 16 7 -7 17 -7 34
0 34 16 30 25 -13 35 -32 7 -39 13 -41 37 -6 50 19 79 33 37z m430 -208 c99
-75 184 -165 215 -229 13 -27 24 -51 25 -54 1 -5 9 -21 75 -165 16 -33 67
-138 115 -234 47 -95 84 -174 83 -175 -3 -2 -178 -59 -188 -61 -3 -1 -18 -7
-33 -13 -16 -7 -34 -12 -40 -12 -7 0 -22 -7 -34 -15 -20 -14 -21 -13 -25 29
-3 24 -13 58 -22 76 -9 18 -16 41 -16 52 0 33 -17 19 -23 -20 -4 -25 -18 -49
-41 -71 -19 -19 -38 -47 -41 -62 -5 -23 -36 -62 -39 -51 -1 2 -13 -1 -27 -6
-14 -6 -57 -18 -95 -27 -38 -10 -77 -22 -87 -27 -17 -8 -18 -7 -12 14 7 23 80
181 114 248 22 43 85 80 144 85 25 3 57 9 72 15 15 6 30 9 32 6 5 -4 -85 -56
-98 -56 -5 0 -13 -9 -19 -20 -6 -11 -17 -20 -24 -20 -18 0 -92 -67 -84 -75 4
-4 31 10 60 32 58 43 131 88 191 115 27 12 37 23 37 40 0 17 -3 19 -12 10 -17
-17 -28 -15 -21 4 4 12 0 14 -23 8 -16 -4 -32 -12 -36 -18 -4 -6 -8 -7 -8 -2
0 5 23 30 52 56 l52 47 -22 91 c-13 50 -29 104 -37 119 -14 26 -13 29 12 49
l27 21 -37 50 c-20 28 -45 68 -54 91 -12 25 -41 59 -83 93 l-65 52 70 -71 c44
-46 63 -72 53 -72 -14 0 -13 -5 7 -26 14 -15 25 -31 25 -37 0 -6 11 -25 25
-42 l24 -33 -31 -13 c-17 -7 -65 -35 -106 -62 l-75 -48 -29 28 c-71 67 -128
181 -128 254 0 34 5 42 43 69 88 61 87 60 27 43 -30 -8 -63 -25 -72 -37 -10
-11 -18 -17 -18 -13 0 5 9 20 20 34 11 14 20 32 20 39 0 8 4 14 8 14 8 0 42
53 42 66 0 4 -15 -5 -32 -22 l-33 -29 34 38 35 37 25 -23 c15 -13 62 -51 106
-84z m-203 53 c-11 -11 -27 -39 -36 -60 -12 -30 -19 -37 -28 -28 -9 9 -8 16 4
29 9 10 20 30 23 46 7 28 33 50 48 40 5 -3 0 -15 -11 -27z m-3666 -63 c-17
-59 -17 -95 -1 -129 9 -19 23 -38 31 -41 8 -3 14 -10 14 -16 0 -6 10 -21 21
-33 26 -27 19 -54 -14 -54 -30 0 -94 66 -107 111 -11 37 -5 79 15 119 8 14 16
33 19 43 3 9 10 17 16 17 6 0 9 -8 6 -17z m329 -82 c3 -15 1 -38 -4 -52 l-10
-24 0 28 c-1 15 -8 44 -16 64 -19 46 -19 50 4 29 11 -10 23 -30 26 -45z m3165
39 c16 0 40 4 54 10 21 8 30 5 53 -16 25 -24 27 -30 24 -92 -3 -75 -5 -82 -30
-82 -37 0 -91 80 -91 136 0 13 -4 24 -10 24 -20 0 -10 -71 16 -110 15 -22 25
-43 22 -46 -8 -7 -106 93 -113 115 -2 9 -14 22 -24 28 -20 12 -20 12 0 -21 11
-19 38 -55 61 -81 39 -44 40 -47 22 -60 -17 -13 -22 -11 -46 18 -15 18 -32 46
-38 62 -7 17 -18 45 -26 63 -22 50 -19 62 13 53 17 -5 37 -2 53 6 15 8 26 9
28 3 2 -6 16 -10 32 -10z m-2854 -56 c-11 -31 -15 -35 -21 -21 -4 10 0 27 10
43 23 35 28 25 11 -22z m320 -27 c-2 -7 -6 -19 -9 -27 -4 -8 -12 -33 -19 -54
-14 -43 -32 -56 -42 -30 -4 10 3 29 19 50 15 19 25 46 25 65 0 26 2 29 14 20
8 -7 13 -17 12 -24z m-712 -21 c-3 -15 -8 -25 -11 -23 -2 3 -1 17 3 31 3 15 8
25 11 23 2 -3 1 -17 -3 -31z m470 15 c3 -5 22 -12 42 -16 20 -3 48 -14 62 -23
22 -14 24 -21 20 -69 -3 -36 -12 -60 -26 -76 -27 -29 -27 -31 2 -50 42 -28
211 -40 380 -27 83 7 155 16 160 21 6 5 16 9 23 9 24 0 14 -16 -19 -31 -32
-14 -50 -39 -27 -39 7 0 54 22 105 50 117 63 179 73 245 39 24 -13 46 -24 49
-24 30 -7 128 -62 180 -101 86 -65 95 -85 94 -214 -1 -101 -11 -162 -39 -225
-46 -104 -56 -201 -34 -307 10 -48 21 -63 109 -153 54 -55 101 -111 105 -124
6 -21 6 -22 -9 -10 -9 8 -48 51 -87 97 -38 45 -75 82 -82 82 -7 -1 0 -11 16
-23 15 -13 27 -26 27 -30 0 -8 127 -167 141 -177 3 -3 10 -25 13 -50 4 -25 11
-54 15 -65 5 -11 21 -65 36 -120 15 -55 33 -113 41 -129 7 -15 16 -44 20 -64
7 -35 6 -35 -23 -29 -17 3 -35 1 -40 -4 -7 -7 -12 16 -16 67 -4 42 -11 82 -16
88 -4 6 -16 36 -26 66 -10 30 -28 71 -41 91 -20 32 -21 36 -5 32 9 -2 23 3 31
12 12 14 10 20 -14 43 -25 25 -28 26 -37 9 -9 -15 -26 -3 -138 100 -70 65
-169 155 -219 201 -50 46 -111 109 -135 140 -58 75 -143 226 -161 285 -3 9
-10 17 -16 17 -11 0 -4 -46 10 -65 4 -5 10 -25 14 -44 3 -19 17 -49 31 -66
l24 -32 -32 -30 c-136 -127 -272 -207 -367 -218 -85 -10 -256 12 -317 41 -28
13 -57 24 -63 24 -6 0 -46 35 -89 78 -58 58 -86 96 -113 152 -29 62 -76 179
-94 238 -3 12 -24 18 -24 7 0 -3 7 -21 15 -40 8 -20 24 -72 36 -118 16 -57 34
-97 61 -133 21 -29 38 -62 38 -77 0 -14 4 -28 9 -31 10 -7 9 -17 -9 -65 l-13
-34 -13 29 c-12 27 -13 27 -9 4 15 -87 29 -148 38 -165 6 -11 12 -22 13 -25 2
-9 54 -125 67 -150 8 -15 12 -50 10 -89 -2 -35 1 -69 6 -75 5 -6 19 -51 31
-101 12 -49 35 -117 50 -150 50 -112 54 -125 40 -138 -10 -9 -14 -9 -17 1 -5
13 -25 17 -21 5 6 -20 -25 -53 -48 -53 -26 0 -26 1 -17 53 11 70 8 155 -8 192
-7 17 -13 32 -14 35 0 3 -6 14 -12 25 -12 23 -28 85 -25 101 1 6 -15 23 -37
38 -30 21 -42 37 -51 74 -6 26 -18 61 -27 79 -27 58 -7 59 29 3 36 -55 68 -90
68 -74 0 5 -16 36 -36 68 -19 33 -49 87 -67 120 -20 40 -32 55 -35 44 -8 -39
-22 -20 -61 82 -28 73 -33 109 -23 145 8 27 9 28 15 10 7 -20 65 -50 76 -40 8
8 -28 75 -40 75 -6 0 -8 -7 -5 -16 5 -13 2 -15 -11 -9 -10 4 -25 8 -33 7 -20
0 -50 39 -94 125 -33 64 -38 83 -43 165 -4 84 -2 96 18 128 13 19 39 67 59
105 20 39 44 84 53 100 8 17 28 57 42 90 14 33 34 75 43 94 26 53 145 174 196
199 25 13 46 28 46 33 0 12 17 12 24 0z m-423 -74 c-10 -9 -11 -8 -5 6 3 10 9
15 12 12 3 -3 0 -11 -7 -18z m1001 8 c15 -4 34 -17 42 -29 13 -21 12 -27 -14
-72 l-28 -49 -90 -10 c-60 -7 -117 -8 -165 -1 l-74 9 59 30 c32 17 77 46 99
65 48 41 108 73 129 67 8 -2 27 -7 42 -10z m-1143 -54 c14 -9 7 -51 -13 -63
-26 -17 -48 36 -24 60 14 14 19 15 37 3z m3596 -107 c8 -17 37 -58 65 -90 27
-33 50 -62 50 -66 0 -8 -97 -78 -110 -78 -6 0 -10 7 -10 15 0 8 -9 34 -19 58
-26 58 -39 102 -46 167 -3 30 -9 69 -12 85 -5 29 -4 29 31 -15 20 -25 43 -59
51 -76z m-3397 99 c-10 -2 -26 -2 -35 0 -10 3 -2 5 17 5 19 0 27 -2 18 -5z
m546 -53 c28 -43 23 -48 -30 -34 -19 5 -20 9 -10 40 6 19 11 34 12 34 1 0 13
-18 28 -40z m-857 0 l24 -19 -69 -35 c-39 -19 -79 -47 -90 -61 -11 -14 -23
-25 -28 -25 -4 0 7 16 26 35 25 26 30 35 17 35 -9 0 -17 5 -17 10 0 6 8 10 18
10 10 0 33 16 52 35 19 19 36 35 38 35 2 0 15 -9 29 -20z m293 10 c0 -5 -4
-10 -10 -10 -5 0 -10 5 -10 10 0 6 5 10 10 10 6 0 10 -4 10 -10z m100 -42
c-12 -18 -41 -73 -64 -123 -86 -180 -97 -201 -126 -254 l-30 -53 0 45 c0 59
31 158 80 254 22 42 40 81 40 85 0 21 -22 3 -46 -37 -33 -56 -40 -53 -17 8 16
44 19 46 97 75 45 17 83 31 84 31 2 1 -6 -14 -18 -31z m-340 -19 c0 -21 -73
-153 -89 -164 -5 -3 -30 -8 -55 -11 -46 -7 -46 -6 -45 22 0 16 3 36 7 45 9 20
164 138 175 132 4 -2 7 -13 7 -24z m2333 -63 c56 -46 126 -106 156 -133 55
-50 92 -114 90 -161 l-1 -27 -10 28 c-12 34 -26 35 -34 2 -7 -30 -15 -31 -179
-10 -134 17 -254 42 -270 55 -16 13 -103 25 -90 13 14 -14 215 -60 295 -69 36
-4 71 -11 77 -16 7 -6 24 -8 38 -6 14 3 28 1 31 -3 3 -5 23 -9 45 -9 38 0 40
-2 37 -27 -3 -26 -6 -28 -48 -25 -65 4 -282 41 -305 52 -23 10 -129 40 -142
40 -20 -1 77 -40 123 -50 120 -25 271 -51 299 -51 51 1 66 -18 54 -70 -6 -24
-15 -54 -21 -66 -6 -11 -8 -26 -4 -31 3 -6 2 -13 -3 -16 -16 -10 -23 -143 -9
-168 7 -13 13 -25 13 -28 0 -3 9 -20 18 -37 10 -18 16 -33 13 -33 -2 0 -61 28
-130 61 -144 70 -156 82 -256 267 -60 110 -82 133 -49 50 12 -29 31 -78 42
-108 12 -30 26 -60 32 -67 31 -37 35 -43 28 -43 -4 0 -30 13 -58 28 l-50 27
-7 65 c-9 92 -30 203 -40 216 -4 6 -5 14 -1 17 3 4 0 13 -7 22 -7 8 -9 15 -5
15 4 0 3 6 -3 13 -6 7 -13 24 -15 37 -2 14 -11 42 -21 62 -9 21 -16 44 -16 52
0 8 -5 18 -10 21 -6 4 -8 11 -5 16 5 8 -96 80 -128 92 -27 10 10 22 121 40 94
15 253 40 295 46 4 0 53 -37 110 -83z m1587 37 c6 -26 15 -52 19 -58 4 -5 14
-31 21 -57 12 -46 12 -48 -16 -82 -16 -19 -45 -42 -64 -52 -19 -11 -38 -23
-42 -29 -5 -7 -8 -7 -8 0 0 7 -3 7 -8 0 -4 -5 -68 -30 -142 -55 -99 -32 -142
-52 -162 -72 -28 -30 -66 -36 -112 -18 -33 12 -33 27 1 62 l27 28 -24 0 c-43
0 -13 11 68 25 88 16 187 68 276 146 47 42 47 42 28 63 -27 29 -43 62 -34 71
4 4 21 13 37 21 17 8 46 24 65 35 19 10 40 19 46 19 7 0 17 -21 24 -47z
m-3845 5 c-24 -137 -45 -303 -45 -355 0 -34 -5 -65 -11 -68 -5 -4 -9 -19 -7
-33 3 -24 0 -27 -26 -27 -25 0 -33 7 -52 45 -29 56 -29 54 2 70 34 19 42 35
60 132 9 46 20 88 25 94 12 15 40 96 35 101 -9 9 -134 -195 -150 -244 -16 -47
-21 -53 -52 -59 -20 -4 -46 -2 -60 5 -20 9 -24 8 -24 -7 0 -25 -36 -62 -60
-62 -30 0 -33 18 -6 42 26 23 46 78 29 78 -5 0 -22 -13 -38 -30 -31 -32 -65
-40 -65 -15 0 9 12 21 28 27 43 19 113 89 102 104 -7 7 -7 20 -1 35 6 16 10
18 10 8 1 -21 21 -29 77 -29 38 0 49 5 82 38 20 21 55 70 77 110 27 48 46 72
58 72 15 0 17 -6 12 -32z m52 -68 c-8 -31 -17 -48 -21 -41 -10 15 19 109 30
98 2 -2 -2 -28 -9 -57z m-337 -46 c0 -8 -4 -14 -10 -14 -5 0 -10 9 -10 21 0
11 5 17 10 14 6 -3 10 -13 10 -21z m3578 -20 c18 -5 22 -12 18 -33 -28 -144
-27 -141 -50 -141 -42 0 -50 22 -30 87 17 53 20 64 23 86 1 9 9 9 39 1z
m-1359 -295 c10 -18 27 -137 17 -128 -3 3 -7 14 -9 25 -2 10 -7 26 -10 34 -16
38 -47 139 -56 179 -17 78 1 67 25 -15 13 -43 28 -86 33 -95z m1851 126 c-14
-8 -29 -14 -35 -14 -5 0 1 6 15 14 14 8 30 14 35 14 6 0 -1 -6 -15 -14z m-553
-11 c-3 -3 -12 -4 -19 -1 -8 3 -5 6 6 6 11 1 17 -2 13 -5z m-57 -24 c0 -11 -4
-28 -9 -38 -9 -15 -49 -220 -66 -337 -4 -22 -10 -49 -15 -60 -4 -11 -18 -105
-29 -209 -12 -105 -23 -191 -24 -193 -2 -1 -39 15 -83 36 -43 22 -94 45 -111
51 -18 7 -33 16 -33 20 0 4 17 14 38 22 30 12 43 26 60 61 12 25 26 48 32 52
5 3 10 11 10 17 0 6 -10 2 -22 -9 -45 -40 -88 -56 -139 -49 -27 4 -50 2 -54
-3 -3 -6 -12 -8 -19 -5 -7 3 -18 -2 -25 -10 -22 -26 -87 18 -117 78 -13 27
-22 52 -19 54 3 3 -1 12 -8 20 -8 10 -13 71 -15 199 l-4 183 61 0 c33 0 63 4
66 10 3 5 20 8 38 7 18 -2 37 0 42 4 6 3 62 17 125 29 63 12 134 31 157 41 23
11 50 19 60 20 10 0 34 7 53 14 47 18 50 18 50 -5z m110 10 c0 -5 -12 -10 -26
-10 -14 0 -23 4 -19 10 3 6 15 10 26 10 10 0 19 -4 19 -10z m-280 -24 c0 -18
-260 -74 -387 -83 -81 -5 -93 -4 -93 10 0 38 9 44 67 39 65 -5 321 16 343 29
15 8 70 13 70 5z m240 -13 c0 -7 7 -13 16 -13 10 0 14 -6 11 -14 -3 -7 -9 -35
-12 -62 -4 -27 -11 -53 -15 -59 -9 -12 -57 -293 -65 -385 -4 -36 -10 -74 -15
-85 -7 -18 -31 -211 -34 -275 -1 -20 4 -26 26 -28 37 -4 50 -22 35 -51 -18
-36 -462 -300 -504 -301 -18 0 -33 4 -33 8 0 4 23 30 50 57 28 27 50 54 50 60
0 5 44 56 98 112 l97 102 -163 83 c-89 46 -301 153 -470 238 l-307 155 -8 38
c-5 21 -7 40 -5 43 5 4 428 -207 881 -440 114 -58 207 -102 207 -98 0 5 -27
22 -59 38 -33 16 -117 60 -188 98 -120 65 -222 118 -366 193 -34 18 -57 32
-50 32 7 1 155 -71 329 -159 174 -88 319 -160 321 -160 1 0 3 47 3 105 0 58 4
113 10 123 5 9 23 129 40 266 17 141 39 274 50 307 11 32 20 64 20 71 0 7 11
13 25 13 14 0 25 -6 25 -12z m-1340 -115 c12 -46 27 -87 31 -92 10 -11 12 -76
3 -76 -17 0 -124 54 -124 62 0 22 32 118 41 124 5 3 7 9 4 14 -3 5 -1 11 4 15
6 3 8 12 4 20 -3 8 -1 15 4 15 5 0 20 -37 33 -82z m580 57 c0 -8 -4 -15 -10
-15 -5 0 -10 7 -10 15 0 8 5 15 10 15 6 0 10 -7 10 -15z m0 -89 c0 -30 -4 -58
-10 -61 -12 -8 -13 -227 -1 -240 5 -6 14 -27 21 -48 6 -21 23 -49 36 -62 14
-14 19 -25 12 -25 -7 0 -36 25 -64 56 -49 52 -53 59 -59 122 -5 49 -1 99 14
181 12 63 21 118 21 123 0 4 7 8 15 8 11 0 15 -13 15 -54z m1381 0 c5 -6 9
-29 9 -53 0 -56 21 -66 60 -28 17 16 32 26 35 23 11 -11 -138 -110 -187 -125
-27 -8 -48 -16 -46 -19 3 -2 31 5 64 16 68 23 78 24 68 9 -17 -29 -132 -67
-232 -78 -56 -6 -110 -11 -120 -11 -15 0 -15 -1 0 -16 14 -15 25 -14 129 6 63
12 132 30 155 40 46 20 96 59 89 70 -6 9 33 45 41 37 9 -8 -23 -53 -123 -172
-104 -123 -113 -133 -233 -262 -85 -91 -85 -91 -107 -73 l-23 18 56 32 c64 36
132 97 207 185 l52 60 -90 -81 c-50 -45 -98 -91 -109 -102 -20 -24 -110 -57
-126 -47 -5 3 -17 21 -26 40 -15 32 -15 38 0 69 9 19 16 41 16 50 0 19 34 116
63 178 21 44 25 48 74 58 29 6 55 15 58 20 3 4 22 11 42 15 54 10 87 30 102
61 6 15 29 52 49 83 33 50 37 53 40 31 2 -14 8 -29 13 -34z m252 -88 c13 -43
13 -47 -3 -51 -14 -4 -19 4 -23 46 -10 84 -22 80 -30 -11 -5 -60 -4 -64 19
-72 13 -5 24 -14 24 -20 0 -12 -80 -51 -91 -44 -4 2 0 18 8 35 9 18 18 64 21
103 2 39 9 77 15 84 15 19 43 -13 60 -70z m-90 0 c-3 -29 -10 -59 -16 -65 -5
-7 -6 -13 -3 -13 8 0 -25 -62 -38 -71 -5 -4 -6 -15 -2 -24 5 -14 14 -16 45
-11 35 5 39 4 34 -13 -3 -11 -14 -27 -24 -37 -19 -17 -26 -44 -11 -44 17 0 40
36 47 71 4 23 20 50 41 70 34 33 34 33 34 8 0 -13 -9 -74 -20 -135 -19 -109
-36 -164 -51 -164 -4 0 -26 23 -49 50 -23 28 -50 50 -60 50 -27 0 -37 19 -45
81 -7 54 -6 58 34 117 23 33 49 84 57 114 26 87 36 93 27 16z m-2066 -5 c-3
-10 -5 -4 -5 12 0 17 2 24 5 18 2 -7 2 -21 0 -30z m-79 -68 c64 -33 69 -37 79
-79 l10 -44 -51 22 c-85 38 -140 76 -127 89 6 6 11 19 11 29 0 10 2 18 5 18 3
0 36 -16 73 -35z m619 -17 c-3 -8 -6 -5 -6 6 -1 11 2 17 5 13 3 -3 4 -12 1
-19z m1453 9 c0 -2 -10 -12 -21 -23 -22 -19 -22 -19 -10 4 10 18 31 31 31 19z
m-2580 -68 c0 -5 -12 -9 -26 -9 -14 0 -48 -17 -77 -39 -28 -22 -54 -37 -57
-34 -3 3 5 12 18 22 13 9 44 32 70 52 33 26 51 34 60 26 6 -5 12 -13 12 -18z
m555 -62 l56 -35 -71 -21 c-82 -25 -96 -20 -105 38 -3 20 -10 44 -16 54 -26
48 12 38 136 -36z m-1385 -73 c8 -3 33 -14 55 -24 l40 -20 -45 6 c-25 4 -49
10 -55 14 -5 4 -26 11 -45 15 -74 16 -80 21 -67 54 l11 30 45 -35 c26 -19 53
-37 61 -40z m655 36 c-3 -5 -11 -10 -16 -10 -6 0 -7 5 -4 10 3 6 11 10 16 10
6 0 7 -4 4 -10z m3014 -36 c22 -19 45 -52 52 -72 16 -52 116 -239 150 -283 16
-20 29 -42 29 -48 0 -6 5 -11 10 -11 6 0 10 -7 10 -15 0 -9 7 -18 15 -21 8 -3
17 -15 20 -25 4 -11 22 -26 41 -34 19 -8 34 -19 34 -25 0 -20 -20 -50 -34 -50
-18 0 -48 -37 -75 -92 -23 -49 -53 -78 -81 -78 -8 0 -27 -7 -42 -14 -33 -17
-34 -14 -9 28 11 17 25 60 31 96 6 36 17 77 25 92 12 24 10 29 -16 54 -16 15
-29 32 -29 37 0 5 -28 41 -62 81 -35 41 -91 108 -126 151 l-63 77 23 94 c26
109 35 114 97 58z m-2798 7 c-21 -10 -45 -11 -87 -6 -74 9 -49 20 46 20 67 0
69 -1 41 -14z m636 -147 c23 -45 39 -84 36 -88 -3 -3 -1 -12 5 -19 9 -10 5
-30 -15 -82 l-27 -68 -13 29 c-7 16 -12 43 -13 61 0 17 -5 35 -11 39 -6 3 -9
15 -6 25 3 10 2 21 -3 24 -4 2 -10 17 -13 32 -4 19 -24 41 -62 68 -30 22 -55
45 -55 52 0 6 -8 17 -17 22 -10 6 -16 11 -13 11 3 0 37 11 75 24 l70 23 10
-36 c6 -20 29 -73 52 -117z m-767 116 c9 -5 52 -14 97 -20 79 -12 81 -13 88
-44 14 -65 17 -129 7 -150 -6 -11 -13 -50 -16 -86 -3 -36 -16 -94 -28 -130
-22 -67 -101 -184 -121 -177 -6 2 -17 23 -25 46 -8 24 -22 51 -32 61 -9 9 -22
45 -30 81 -17 84 -58 208 -80 239 -10 14 -21 45 -25 70 -4 25 -12 50 -17 57
-9 12 -7 14 67 56 30 16 79 15 115 -3z m170 10 c0 -5 -7 -10 -15 -10 -8 0 -15
5 -15 10 0 6 7 10 15 10 8 0 15 -4 15 -10z m133 -87 c9 -9 17 -22 17 -30 0
-14 -68 -93 -80 -93 -5 0 -11 26 -15 58 -3 31 -8 77 -10 100 l-5 44 38 -31
c20 -17 45 -39 55 -48z m502 46 c6 -19 0 -38 -9 -28 -10 12 -16 49 -7 49 5 0
13 -9 16 -21z m-1646 -6 c-1 -10 -4 -29 -8 -43 -7 -23 -8 -22 -18 18 -10 38
-9 42 8 42 12 0 19 -7 18 -17z m111 -24 c6 -10 6 -20 2 -23 -5 -3 -17 -32 -27
-66 -10 -33 -21 -60 -24 -60 -13 0 -42 83 -35 99 4 9 8 18 9 21 16 47 25 58
45 53 11 -3 25 -14 30 -24z m1670 -71 c0 -39 -4 -68 -10 -68 -6 0 -10 34 -10
83 0 56 3 77 10 67 5 -8 10 -45 10 -82z m-1230 66 c-8 -8 -30 -23 -49 -33 -20
-9 -45 -23 -57 -31 -18 -11 -25 -10 -53 11 -28 20 -30 25 -14 28 10 2 24 8 30
13 7 6 18 8 25 6 7 -3 29 1 48 8 19 7 46 13 59 13 20 1 22 -1 11 -15z m1332
-41 c25 -10 40 -26 48 -47 7 -17 20 -47 30 -66 10 -19 23 -53 30 -75 7 -22 18
-49 23 -60 6 -11 12 -22 12 -25 0 -3 7 -16 15 -30 10 -17 15 -57 15 -128 l0
-103 -38 -37 c-31 -30 -39 -34 -47 -22 -5 8 -10 12 -10 8 0 -4 -15 -1 -32 6
-35 14 -53 12 -78 -9 -8 -7 -29 -16 -46 -19 -17 -4 -43 -20 -58 -35 -24 -25
-25 -29 -11 -41 21 -17 19 -30 -5 -30 -11 0 -20 7 -20 15 0 8 -8 15 -18 15
-10 0 -27 6 -38 14 -18 14 -18 15 8 25 16 6 30 21 33 34 6 24 -30 163 -46 181
-16 18 -9 44 16 60 14 9 25 21 25 27 0 6 23 39 52 73 l51 63 94 -5 c51 -3 93
-2 93 2 0 12 -66 65 -108 86 -24 12 -46 30 -49 39 -2 9 -9 25 -13 36 -12 30
-20 82 -13 89 4 3 16 -1 27 -9 12 -9 38 -23 58 -32z m506 -10 c-11 -14 -74
-18 -103 -7 -27 11 -1 19 59 20 44 0 53 -3 44 -13z m-1708 -78 c17 -11 11 -61
-10 -80 -19 -17 -20 -17 -20 -1 0 10 5 26 11 37 8 15 7 26 -4 42 -8 12 -17 38
-21 57 l-7 35 21 -42 c11 -23 25 -45 30 -48z m604 -5 c15 0 156 -137 156 -152
0 -5 15 -42 34 -81 49 -104 50 -110 24 -138 -13 -14 -28 -36 -34 -50 -6 -13
-24 -39 -39 -58 -26 -30 -32 -32 -70 -27 -27 5 -51 2 -69 -8 -21 -11 -51 -13
-120 -9 -91 6 -92 5 -109 -21 -10 -15 -22 -24 -27 -21 -15 9 -12 -6 5 -25 13
-15 11 -16 -23 -18 -50 -2 -133 18 -126 30 3 5 16 7 28 4 24 -6 36 12 76 117
12 31 27 60 32 63 5 4 18 25 28 49 10 23 37 60 61 81 23 22 60 61 81 88 l40
50 -7 70 c-3 39 -8 85 -11 101 l-6 30 32 -37 c17 -21 37 -38 44 -38z m806 -53
c0 -24 3 -47 7 -51 4 -3 8 -12 9 -19 7 -34 57 -194 67 -212 6 -11 11 -23 12
-27 0 -3 3 -10 8 -14 15 -16 6 -24 -28 -24 -34 0 -46 -12 -25 -25 14 -9 12
-25 -3 -25 -23 0 -37 21 -26 42 8 15 6 18 -10 18 -19 0 -20 5 -14 63 5 62 1
80 -50 197 -6 14 -11 27 -12 30 0 3 -17 38 -38 79 -20 41 -37 76 -37 78 0 2
32 -13 70 -32 l70 -35 0 -43z m-1689 81 c1 -7 1 -16 0 -20 -2 -13 18 -9 46 10
l27 17 -33 -60 c-19 -33 -38 -64 -43 -69 -16 -19 -7 -39 53 -113 54 -65 59
-74 38 -71 -15 2 -29 14 -37 33 -23 53 -27 57 -75 82 -26 14 -47 29 -47 33 0
5 12 22 26 39 l26 31 -33 0 -33 0 38 39 c21 22 35 44 32 50 -4 6 -2 11 3 11 6
0 12 -6 12 -12z m778 -64 c1 -51 -9 -104 -19 -104 -5 0 -11 15 -15 33 -19 92
-29 86 -26 -16 2 -56 -1 -77 -13 -86 -9 -8 -16 -18 -16 -23 0 -5 -29 -51 -65
-103 -36 -51 -65 -97 -65 -103 0 -5 -7 -23 -15 -38 -8 -16 -15 -36 -15 -44 0
-11 -12 -15 -48 -15 -43 0 -47 2 -45 22 2 13 33 51 70 88 38 36 59 62 49 58
-21 -7 -17 6 11 38 7 9 22 40 33 70 10 30 26 68 34 84 9 17 16 40 16 51 0 49
13 84 30 84 10 0 33 17 51 38 38 42 47 36 48 -34z m2046 38 c31 -31 44 -58 71
-145 18 -60 37 -114 42 -120 5 -7 19 -40 31 -74 13 -33 39 -85 58 -115 69
-104 67 -129 -10 -154 -29 -9 -56 -19 -62 -23 -5 -3 -14 -6 -20 -8 -5 -1 -24
-6 -42 -11 -26 -9 -34 -7 -49 9 -11 12 -24 17 -36 13 -10 -3 -18 -1 -18 4 0 6
-14 7 -37 1 -48 -11 -53 -11 -53 0 0 5 24 15 53 21 52 13 177 84 177 102 0 6
-20 39 -45 75 -25 35 -45 67 -45 70 0 3 -15 26 -33 52 -18 25 -50 75 -72 111
-21 36 -47 75 -59 88 l-20 22 59 60 c33 33 62 60 66 60 4 0 24 -17 44 -38z
m-1371 -52 c49 -25 77 -58 40 -46 -11 3 -41 6 -67 8 -27 1 -50 5 -53 10 -3 4
1 8 8 8 7 0 2 7 -10 16 -59 41 3 44 82 4z m427 -61 c19 -13 68 -39 107 -58 40
-19 72 -37 72 -41 0 -13 -270 -273 -276 -267 -4 4 -2 13 4 19 7 7 12 19 12 27
0 8 7 23 16 32 15 17 14 22 -13 66 -33 53 -68 168 -77 250 l-5 52 62 -28 c34
-16 78 -39 98 -52z m-2201 -46 c-1 -38 -3 -44 -11 -30 -9 16 -4 77 7 77 2 0 4
-21 4 -47z m685 -110 c41 -93 42 -96 2 -32 -38 61 -53 99 -40 99 5 0 22 -30
38 -67z m-563 -139 c55 -56 88 -96 83 -103 -7 -13 -65 40 -65 59 0 5 -13 10
-30 10 -27 0 -30 3 -30 29 0 21 -6 32 -21 36 -12 4 -29 26 -40 52 -23 53 -25
80 -3 38 9 -16 57 -71 106 -121z m1368 -59 c0 -8 -4 -15 -10 -15 -5 0 -10 7
-10 15 0 8 5 15 10 15 6 0 10 -7 10 -15z m-1345 -153 c9 -31 19 -63 22 -69 3
-8 -3 -13 -14 -13 -11 0 -23 -4 -28 -9 -6 -4 -22 -11 -37 -15 -25 -6 -28 -3
-28 18 0 15 7 25 20 29 23 6 41 45 29 67 -4 8 -15 35 -24 60 l-17 45 30 -28
c18 -18 36 -51 47 -85z m1295 80 c0 -21 -31 -50 -50 -45 -23 6 -26 23 -8 41
13 13 58 17 58 4z m379 -25 c8 -11 3 -23 -24 -54 -19 -22 -44 -43 -56 -46 -16
-4 -19 -3 -11 5 6 6 8 16 5 23 -2 7 5 16 17 20 20 6 21 7 3 20 -20 15 -19 16
17 32 33 15 36 15 49 0z"/>
<path d="M2000 5268 c-36 -5 -84 -9 -107 -11 -28 -2 -52 -12 -69 -28 -27 -25
-104 -155 -104 -176 0 -15 74 65 83 89 3 9 19 25 34 34 15 10 40 28 55 42 22
20 40 25 117 30 70 5 87 9 74 17 -11 7 -42 8 -83 3z"/>
<path d="M5350 5138 c0 -9 -7 -23 -15 -32 -10 -10 -12 -21 -7 -37 8 -22 8 -22
30 6 26 33 26 35 7 61 -12 16 -14 17 -15 2z"/>
<path d="M5309 4494 c-14 -7 -37 -24 -52 -38 -24 -23 -147 -86 -166 -86 -5 0
-22 -7 -37 -15 -16 -8 -38 -15 -48 -15 -15 0 -17 -3 -9 -11 14 -14 96 10 152
45 20 12 57 33 83 46 26 13 62 38 79 57 36 36 36 37 -2 17z"/>
<path d="M6012 3850 c12 -34 12 -35 27 -16 9 10 6 17 -13 30 l-25 16 11 -30z"/>
<path d="M5367 3633 c-7 -36 -1 -41 20 -20 16 16 16 18 1 33 -14 14 -16 13
-21 -13z"/>
<path d="M5042 3791 c-10 -6 -4 -14 22 -29 20 -12 36 -25 36 -30 0 -17 -49
-20 -55 -4 -4 11 -14 12 -43 7 -115 -23 -108 -23 -108 -1 1 17 -6 22 -32 24
-18 2 -39 -1 -45 -6 -7 -5 -34 -10 -60 -10 -47 0 -66 -6 -55 -17 6 -6 88 -8
128 -3 20 2 26 -2 28 -21 4 -22 6 -23 55 -17 29 4 62 10 75 13 15 4 22 1 22
-10 0 -20 29 -30 46 -16 15 13 44 5 44 -11 0 -6 -8 -13 -17 -17 -10 -3 -34
-19 -53 -34 -20 -15 -52 -35 -72 -45 -21 -9 -35 -21 -32 -25 6 -10 73 18 99
41 11 10 36 25 55 33 19 8 48 28 63 45 29 30 29 30 7 37 -13 4 -19 12 -16 21
3 8 -10 29 -31 49 -39 38 -41 39 -61 26z"/>
<path d="M5450 3783 c0 -11 93 -73 109 -73 18 0 13 -18 -9 -30 -31 -16 -25
-40 9 -40 17 0 33 5 37 11 3 6 25 19 47 29 31 14 46 16 69 8 39 -14 128 9 91
23 -11 4 -59 13 -105 19 -45 7 -92 15 -103 20 -11 4 -40 12 -65 18 -25 6 -53
14 -62 17 -10 4 -18 3 -18 -2z"/>
<path d="M4495 3690 c-28 -7 -29 -9 -7 -14 4 -2 33 -10 65 -20 44 -13 65 -15
86 -8 16 6 56 8 90 5 42 -4 61 -2 61 6 0 6 -8 11 -17 11 -10 0 -67 7 -128 15
-60 8 -112 14 -115 14 -3 -1 -18 -5 -35 -9z"/>
<path d="M4720 3616 c-25 -7 -53 -16 -63 -20 -9 -5 -26 -6 -38 -3 -13 3 -19 1
-16 -6 2 -7 12 -14 23 -16 22 -4 242 18 264 27 8 3 20 7 25 8 6 1 15 3 20 4 6
1 1 5 -10 10 -29 12 -152 10 -205 -4z"/>
<path d="M2434 3589 c-2 -4 -19 -11 -36 -15 -37 -8 -78 -32 -78 -45 0 -5 15
-2 32 7 57 29 218 32 218 3 0 -6 -9 -8 -20 -4 -11 3 -20 2 -20 -3 0 -15 35
-42 55 -42 10 0 42 -7 70 -16 50 -16 55 -16 124 5 39 12 71 24 71 26 0 3 -48
2 -107 -1 -98 -6 -106 -5 -88 9 11 8 18 17 15 19 -39 32 -90 51 -156 57 -41 4
-77 4 -80 0z"/>
<path d="M4502 3514 c-19 -10 -21 -13 -8 -23 23 -19 213 5 194 25 -11 10 -165
9 -186 -2z"/>
<path d="M3363 3493 c-15 -6 -17 -33 -3 -33 18 0 10 -17 -12 -28 -20 -9 -15
-11 32 -11 30 -1 92 4 136 10 79 11 83 11 138 -15 45 -22 60 -25 72 -15 17 14
10 27 -23 40 -21 8 -23 12 -13 24 11 13 -4 15 -124 15 -84 0 -136 4 -136 10 0
10 -45 12 -67 3z"/>
<path d="M1404 3420 c-9 -8 -9 -18 0 -36 15 -32 64 -41 108 -20 37 19 135 35
223 37 56 1 58 2 25 10 -58 16 -343 23 -356 9z"/>
<path d="M2925 3420 c-128 -7 -198 -27 -172 -48 27 -23 71 -24 124 -3 29 11
59 18 68 15 8 -3 43 -1 77 5 60 10 138 4 181 -14 29 -12 19 9 -14 28 -40 22
-111 27 -264 17z"/>
<path d="M5 3255 c9 -283 134 -742 305 -1116 367 -800 1029 -1462 1829 -1829
374 -171 833 -296 1116 -305 l130 -4 -115 14 c-635 81 -1209 303 -1717 662
-327 231 -645 549 -876 876 -359 508 -581 1082 -662 1717 l-14 115 4 -130z"/>
<path d="M7382 3253 c-4 -66 -52 -324 -82 -444 -168 -665 -497 -1247 -980
-1729 -595 -595 -1337 -956 -2190 -1065 l-115 -14 130 4 c362 11 942 195 1368
433 959 537 1624 1446 1842 2519 28 133 35 191 32 251 -1 42 -4 63 -5 45z"/>
<path d="M1955 2876 c-17 -37 -294 -792 -338 -923 -25 -73 -30 -97 -21 -110
16 -25 99 -36 212 -28 83 6 94 9 112 32 11 14 20 31 20 37 0 6 5 28 11 49 l10
37 154 0 154 0 17 -57 c24 -85 31 -90 137 -98 113 -8 216 4 230 26 13 21 -1
64 -133 409 -144 376 -240 616 -255 637 -11 15 -31 18 -155 19 l-141 2 -14
-32z m199 -517 c14 -47 26 -88 26 -92 0 -4 -30 -7 -66 -7 -49 0 -65 3 -61 13
2 6 17 51 33 99 15 49 31 85 35 80 4 -4 19 -45 33 -93z"/>
<path d="M1094 2893 c-219 -3 -274 -6 -284 -17 -8 -11 -8 -59 1 -203 7 -116
10 -310 6 -505 -5 -306 -4 -318 15 -335 16 -15 43 -18 158 -21 131 -4 139 -3
159 17 12 12 20 30 17 39 -3 9 -8 91 -12 181 l-7 163 191 -3 c147 -3 194 -1
204 9 9 9 13 48 13 136 0 175 11 166 -212 159 -190 -7 -193 -6 -193 49 0 53 7
58 79 58 36 0 126 -5 199 -11 161 -14 188 -8 178 44 -3 18 -8 73 -12 122 -9
123 -12 126 -133 123 -53 -2 -218 -4 -367 -5z"/>
<path d="M2868 2891 c-112 -5 -151 -10 -162 -21 -12 -13 -13 -50 -5 -245 6
-149 6 -311 -1 -460 -5 -126 -10 -249 -10 -272 0 -71 9 -74 188 -71 l157 3 -3
173 -3 172 45 0 c54 0 50 5 126 -186 29 -71 59 -137 67 -146 14 -16 36 -18
168 -18 123 0 155 3 165 15 15 18 13 25 -90 240 l-76 161 49 44 c30 27 60 66
76 100 23 48 26 68 26 160 0 89 -4 113 -24 158 -30 66 -104 134 -176 161 -108
41 -175 45 -517 32z m332 -279 c65 -32 76 -141 20 -184 -29 -21 -112 -34 -164
-24 l-36 7 0 103 c0 56 3 106 7 109 14 15 138 7 173 -11z"/>
<path d="M3740 2891 l-84 -6 -1 -520 c-1 -316 2 -525 8 -532 7 -9 50 -13 153
-13 137 0 144 1 155 22 8 15 10 73 5 202 -5 125 -3 176 4 165 5 -9 37 -81 71
-160 33 -79 72 -165 85 -191 24 -47 25 -48 73 -48 27 0 53 6 59 13 6 7 47 102
92 212 45 110 83 201 84 202 1 2 0 -85 -2 -192 -3 -147 -1 -199 8 -210 17 -20
304 -22 317 -2 13 19 11 1046 -1 1056 -6 5 -73 8 -149 7 -106 -1 -140 -5 -150
-16 -8 -8 -67 -129 -132 -268 -65 -139 -122 -249 -126 -245 -3 5 -56 118 -118
252 -61 134 -118 253 -127 263 -18 19 -47 20 -224 9z"/>
<path d="M5897 2891 c-133 -5 -150 -8 -163 -26 -8 -11 -12 -31 -10 -45 13 -68
17 -480 6 -708 -11 -236 -10 -255 6 -273 15 -17 32 -19 170 -19 186 0 177 -7
164 141 -5 57 -9 128 -10 157 l0 52 44 0 c24 0 48 -6 54 -12 5 -7 36 -78 67
-158 32 -80 64 -153 73 -162 13 -16 35 -18 167 -18 186 0 190 2 155 88 -13 31
-52 114 -87 184 -34 70 -63 131 -63 136 0 4 26 35 58 68 47 48 61 71 75 120
22 77 22 187 0 255 -24 74 -107 158 -185 187 -112 42 -175 46 -521 33z m340
-281 c62 -37 68 -140 11 -183 -29 -22 -108 -33 -162 -23 l-36 7 0 87 c0 134
-1 132 84 132 53 0 79 -5 103 -20z"/>
<path d="M4882 2878 c-7 -9 -6 -89 1 -248 7 -174 7 -305 -2 -502 -8 -184 -9
-273 -2 -287 10 -18 28 -19 368 -23 320 -4 360 -3 376 12 23 21 57 242 41 268
-10 15 -30 17 -206 13 -107 -2 -204 0 -216 3 -19 6 -22 15 -22 57 0 30 5 51
13 54 6 3 84 1 172 -3 202 -11 205 -10 206 86 0 37 4 93 8 126 5 41 4 62 -5
70 -9 9 -61 11 -203 8 l-191 -5 0 53 0 53 205 -6 c190 -6 205 -5 214 12 13 24
-6 220 -25 249 l-14 22 -354 0 c-271 0 -356 -3 -364 -12z"/>
<path d="M4740 1561 l-45 -6 -3 -207 -2 -208 65 0 65 0 0 96 0 96 73 -94 73
-93 57 -3 c52 -3 57 -1 62 20 3 13 4 106 3 208 l-3 185 -53 3 c-80 5 -85 -4
-77 -112 l7 -91 -78 104 c-44 58 -83 106 -89 106 -5 1 -30 -1 -55 -4z"/>
<path d="M5372 1549 c-75 -37 -114 -106 -114 -200 0 -142 103 -233 241 -214
31 5 80 8 109 7 l52 -1 0 114 c0 63 -3 115 -7 116 -5 0 -35 2 -68 2 l-60 2 -5
-55 -5 -55 -37 -3 c-72 -6 -110 66 -73 137 23 46 74 55 118 21 37 -29 53 -25
83 20 26 38 26 41 9 66 -39 60 -163 82 -243 43z"/>
<path d="M2026 1538 c-3 -13 -7 -39 -8 -58 l-3 -35 48 -3 49 -3 -3 -144 c-2
-79 0 -147 4 -151 10 -10 97 -11 121 -1 18 7 19 16 12 132 -3 69 -3 137 0 151
6 22 10 24 36 19 42 -10 56 7 53 63 l-3 47 -151 3 c-149 2 -151 2 -155 -20z"/>
<path d="M2495 1548 c-3 -7 -4 -101 -2 -208 l2 -195 65 0 65 0 3 73 3 72 63 0
62 0 0 -72 -1 -73 69 0 70 0 -2 200 c0 110 -1 203 -2 208 0 4 -29 7 -64 7 -74
0 -77 -4 -69 -84 5 -52 4 -55 -19 -61 -14 -4 -42 -5 -64 -3 l-39 3 -3 73 -3
72 -65 0 c-43 0 -66 -4 -69 -12z"/>
<path d="M3075 1548 c-2 -7 -3 -101 -2 -208 l2 -195 140 -6 c77 -3 144 -2 149
2 11 10 25 89 19 106 -4 9 -29 13 -89 13 -67 0 -84 3 -84 15 0 11 17 15 72 17
l73 3 8 49 c5 31 4 53 -2 59 -6 6 -42 9 -81 8 -65 -2 -70 -1 -70 18 0 20 4 20
76 14 60 -5 78 -3 85 8 11 17 0 91 -15 101 -6 4 -71 8 -144 8 -97 0 -134 -3
-137 -12z"/>
<path d="M3840 1351 l0 -210 43 -6 c23 -4 54 -2 70 4 26 10 27 13 27 81 0 43
4 69 10 65 5 -3 26 -37 46 -75 35 -67 37 -69 81 -76 52 -8 93 7 93 34 0 10
-22 55 -48 98 l-49 80 27 32 c29 36 75 155 65 171 -9 15 -110 14 -123 -2 -6
-7 -20 -38 -32 -70 -14 -38 -29 -61 -43 -66 -21 -8 -22 -5 -27 68 l-5 76 -67
3 -68 3 0 -210z"/>
<path d="M4376 1552 c-8 -13 -9 -402 -1 -410 9 -9 95 -9 118 0 16 7 17 24 15
210 l-3 203 -62 3 c-34 2 -64 -1 -67 -6z"/>
</g>
</svg>
